<svg width="24" height="24" viewBox="0 0 24 24" fill="none" xmlns="http://www.w3.org/2000/svg">
<path d="M21.0482 10.9948V16.9242C21.0482 18.0172 20.6314 19.0655 19.8894 19.8384C19.1474 20.6112 18.1411 21.0454 17.0918 21.0454H6.70636C5.65707 21.0454 4.65075 20.6112 3.90879 19.8384C3.16683 19.0655 2.75 18.0172 2.75 16.9242V7.65149C2.75 6.55847 3.16683 5.51023 3.90879 4.73735C4.65075 3.96447 5.65707 3.53027 6.70636 3.53027H13.7794" stroke="black" stroke-width="1.5" stroke-linecap="round" stroke-linejoin="round"/>
<path d="M2.75 7.74414L9.92091 11.9993C10.5203 12.3672 11.2034 12.5612 11.8991 12.5612C12.5948 12.5612 13.2778 12.3672 13.8773 11.9993L16.0721 10.7042" stroke="black" stroke-width="1.5" stroke-linecap="round" stroke-linejoin="round"/>
<path d="M18.8228 7.65152C20.1885 7.65152 21.2956 6.49831 21.2956 5.07576C21.2956 3.65321 20.1885 2.5 18.8228 2.5C17.4572 2.5 16.3501 3.65321 16.3501 5.07576C16.3501 6.49831 17.4572 7.65152 18.8228 7.65152Z" stroke="black" stroke-width="1.5"/>
</svg>
