<svg width="24" height="24" viewBox="0 0 24 24" fill="none" xmlns="http://www.w3.org/2000/svg">
<path d="M16.1838 2.75H7.81581C6.81781 2.75 6.00781 3.583 6.00781 4.61V19.39C6.00781 20.417 6.81781 21.25 7.81581 21.25H16.1838C17.1818 21.25 17.9918 20.417 17.9918 19.39V4.61C17.9918 3.583 17.1818 2.75 16.1838 2.75Z" stroke="black" stroke-width="1.5" stroke-linecap="round" stroke-linejoin="round"/>
<path d="M10.0029 5.27197H13.9969M11.9999 18.773C12.0708 18.7774 12.1418 18.7672 12.2086 18.7431C12.2754 18.719 12.3365 18.6815 12.3883 18.6329C12.44 18.5843 12.4813 18.5256 12.5094 18.4604C12.5376 18.3952 12.5522 18.325 12.5522 18.254C12.5522 18.183 12.5376 18.1127 12.5094 18.0476C12.4813 17.9824 12.44 17.9237 12.3883 17.8751C12.3365 17.8264 12.2754 17.7889 12.2086 17.7648C12.1418 17.7407 12.0708 17.7306 11.9999 17.735C11.8679 17.7432 11.7439 17.8014 11.6532 17.8979C11.5626 17.9943 11.5122 18.1216 11.5122 18.254C11.5122 18.3863 11.5626 18.5137 11.6532 18.6101C11.7439 18.7065 11.8679 18.7648 11.9999 18.773Z" stroke="black" stroke-width="1.5" stroke-linecap="round" stroke-linejoin="round"/>
</svg>
