<svg width="24" height="24" viewBox="0 0 24 24" fill="none" xmlns="http://www.w3.org/2000/svg">
<path d="M18.8123 12.2122L13.4123 17.6122C13.3561 17.6685 13.2797 17.7001 13.2001 17.7001C13.1205 17.7001 13.0441 17.6685 12.9878 17.6122C12.9316 17.5559 12.8999 17.4796 12.8999 17.4C12.8999 17.3204 12.9316 17.244 12.9878 17.1877L17.8756 12.3H5.4001C5.32053 12.3 5.24423 12.2684 5.18797 12.2121C5.1317 12.1558 5.1001 12.0795 5.1001 12C5.1001 11.9204 5.1317 11.8441 5.18797 11.7878C5.24423 11.7316 5.32053 11.7 5.4001 11.7H17.8756L12.9878 6.81222C12.9316 6.75593 12.8999 6.67958 12.8999 6.59997C12.8999 6.52036 12.9316 6.44401 12.9878 6.38772C13.0441 6.33143 13.1205 6.2998 13.2001 6.2998C13.2797 6.2998 13.3561 6.33143 13.4123 6.38772L18.8123 11.7877C18.8402 11.8156 18.8624 11.8487 18.8775 11.8851C18.8926 11.9215 18.9003 11.9605 18.9003 12C18.9003 12.0394 18.8926 12.0784 18.8775 12.1149C18.8624 12.1513 18.8402 12.1844 18.8123 12.2122Z" fill="#1A1A1A"/>
<circle cx="12" cy="12" r="11.5" stroke="#1A1A1A"/>
</svg>
